<svg version="1.1" viewBox="0.0 0.0 512.0 512.0" fill="none" stroke="none" stroke-linecap="square" stroke-miterlimit="10" xmlns:xlink="http://www.w3.org/1999/xlink" xmlns="http://www.w3.org/2000/svg"><clipPath id="p.0"><path d="m0 0l512.0 0l0 512.0l-512.0 0l0 -512.0z" clip-rule="nonzero"/></clipPath><g clip-path="url(#p.0)"><path fill="#000000" fill-opacity="0.0" d="m0 0l512.0 0l0 512.0l-512.0 0z" fill-rule="evenodd"/><path fill="#ffd966" d="m108.961945 419.33334l0 0c0 -39.868866 32.3201 -72.188995 72.18898 -72.188995l0 0c19.145706 0 37.507248 7.6056213 51.045303 21.143677c13.538071 13.538055 21.143661 31.899597 21.143661 51.04532l0 0c0 39.868866 -32.3201 72.188965 -72.188965 72.188965l0 0c-39.86888 0 -72.18898 -32.3201 -72.18898 -72.188965z" fill-rule="evenodd"/><path fill="#cfe2f3" d="m258.6614 419.33334l0 0c0 -39.89496 32.341278 -72.23624 72.23624 -72.23624l0 0c19.158234 0 37.5318 7.6105957 51.078705 21.157501c13.546936 13.546936 21.157501 31.920502 21.157501 51.078735l0 0c0 39.89496 -32.341248 72.236206 -72.236206 72.236206l0 0c-39.89496 0 -72.23624 -32.341248 -72.23624 -72.236206z" fill-rule="evenodd"/><path fill="#b4a7d6" d="m351.00787 301.31497l0 0c0 -39.89499 32.341248 -72.23624 72.236206 -72.23624l0 0c19.158264 0 37.53183 7.6105804 51.078735 21.157501c13.5469055 13.546936 21.157501 31.920502 21.157501 51.078735l0 0c0 39.89496 -32.341248 72.236206 -72.23624 72.236206l0 0c-39.89496 0 -72.236206 -32.341248 -72.236206 -72.236206z" fill-rule="evenodd"/><path fill="#76a5af" d="m319.61154 155.25984l0 0c0 -39.894966 32.341278 -72.23622 72.23624 -72.23622l0 0c19.158234 0 37.5318 7.6105804 51.078705 21.157501c13.546936 13.546921 21.157501 31.920486 21.157501 51.07872l0 0c0 39.89496 -32.341248 72.23622 -72.236206 72.23622l0 0c-39.89496 0 -72.23624 -32.341263 -72.23624 -72.23622z" fill-rule="evenodd"/><path fill="#e06666" d="m183.85826 92.666664l0 0c0 -39.894962 32.341263 -72.23622 72.23622 -72.23622l0 0c19.158234 0 37.5318 7.6105804 51.078735 21.157497c13.5469055 13.546921 21.157501 31.920486 21.157501 51.07872l0 0c0 39.894966 -32.341278 72.23623 -72.23624 72.23623l0 0c-39.89496 0 -72.23622 -32.341263 -72.23622 -72.23623z" fill-rule="evenodd"/><path fill="#ffd966" d="m106.48819 419.33334l0 0c0 -41.312653 33.49051 -74.80316 74.80315 -74.80316l0 0c19.839035 0 38.86551 7.881012 52.893814 21.909332c14.02832 14.02832 21.909332 33.05478 21.909332 52.89383l0 0c0 41.312622 -33.49051 74.80313 -74.80315 74.80313l0 0c-41.312637 0 -74.80315 -33.49051 -74.80315 -74.80313z" fill-rule="evenodd"/><path fill="#76a5af" d="m317.1391 155.25984l0 0c0 -41.312637 33.49051 -74.80315 74.80316 -74.80315l0 0c19.83902 0 38.86551 7.8810196 52.8938 21.909332c14.02832 14.028313 21.909332 33.05478 21.909332 52.893814l0 0c0 41.312637 -33.49051 74.80315 -74.80313 74.80315l0 0c-41.312653 0 -74.80316 -33.49051 -74.80316 -74.80315z" fill-rule="evenodd"/><path fill="#b6d7a8" d="m160.97638 301.31497l0 0c0 -39.89499 -32.341263 -72.23624 -72.23622 -72.23624l0 0c-19.158234 0 -37.531803 7.6105804 -51.07872 21.157501c-13.546921 13.546936 -21.157501 31.920502 -21.157501 51.078735l0 0c0 39.89496 32.34126 72.236206 72.23622 72.236206l0 0c39.89496 0 72.23622 -32.341248 72.23622 -72.236206z" fill-rule="evenodd"/><path fill="#f6936b" d="m194.84514 155.25984l0 0c0 -41.312637 -33.49051 -74.80315 -74.80315 -74.80315l0 0c-19.839027 0 -38.8655 7.8810196 -52.893814 21.909332c-14.028309 14.028313 -21.909332 33.05478 -21.909332 52.893814l0 0c0 41.312637 33.49051 74.80315 74.80315 74.80315l0 0c41.312637 0 74.80315 -33.49051 74.80315 -74.80315z" fill-rule="evenodd"/></g></svg>